<?xml version="1.0" encoding="utf-8"?>
<!-- Generator: Adobe Illustrator 22.1.0, SVG Export Plug-In . SVG Version: 6.00 Build 0)  -->
<svg version="1.1" id="Layer_1" xmlns="http://www.w3.org/2000/svg" xmlns:xlink="http://www.w3.org/1999/xlink" x="0px" y="0px"
	 viewBox="0 0 1000 1000" style="enable-background:new 0 0 1000 1000;" xml:space="preserve">
<style type="text/css">
	.st0{fill:#333333;}
	.st1{fill:#A6A26F;}
	.st2{fill:#6B7334;}
</style>
<ellipse transform="matrix(0.9937 -0.1118 0.1118 0.9937 -98.0445 43.7328)" class="st0" cx="340.8" cy="895.7" rx="114.9" ry="62.7"/>
<path class="st1" d="M400.9,632.2c0,0-68,42.8-142.4-24.8s-119.3-75.1-119.3-75.1S370.7,514.1,400.9,632.2z"/>
<path class="st1" d="M389,624c0,0-108.5-41-95.3-185.6c13.2-144.6-17.3-202.7-17.3-202.7S498.7,486.5,389,624z"/>
<polygon class="st2" points="679,309.5 573.4,491.1 551.1,529.5 509.1,601.6 506.5,605.9 485.8,641.8 484.4,644 448.2,706.3 
	425.8,744.7 327.6,913.5 231.5,859.4 301.6,739 322.3,703.5 354.8,647.6 363.5,632.5 379.1,605.8 384.1,597.3 425.3,526.4 
	446.2,490.8 583,255.5 "/>
<circle class="st1" cx="643.5" cy="269.6" r="158.6"/>
<path class="st1" d="M448.2,706.3l-22.3,38.3c-48.8,10.3-93.4,8.1-124.3-5.6l20.7-35.6C354.1,716.2,399.3,717.7,448.2,706.3z"/>
<path class="st1" d="M509.1,601.6l-2.5,4.3l-20.8,35.9c-51.4,10.6-97.4,12.5-130.9,5.8c-6.7-1.4-12.7-3.1-18.3-5l32-39.5
	c3.3,1.1,6.9,1.9,10.5,2.7C412.2,613.3,457.8,611.8,509.1,601.6z"/>
<ellipse transform="matrix(0.9937 -0.1118 0.1118 0.9937 -96.6417 39.3054)" class="st2" cx="302" cy="881" rx="121" ry="66"/>
</svg>
